<?xml version="1.0" encoding="UTF-8"?>
<svg version="1.1" xmlns="http://www.w3.org/2000/svg" width="1920" height="1164">
<path d="M0 0 C0.70640625 -0.03738281 1.4128125 -0.07476562 2.140625 -0.11328125 C17.64633828 -0.35555802 34.02383995 8.43563018 48.1875 14 C50.34964635 14.84509401 52.51200449 15.68964635 54.67456055 16.53369141 C58.02714352 17.84238383 61.37952786 19.15156639 64.73109436 20.46286011 C72.15373449 23.36638961 79.58500015 26.24657766 87.0234375 29.109375 C115.83171475 40.20403328 144.50701691 51.60747751 173.08374023 63.28594971 C175.52311246 64.28232638 177.96352315 65.27610576 180.40429688 66.26904297 C184.08797116 67.76930479 187.76402062 69.28742212 191.4375 70.8125 C192.40292725 71.20630859 193.36835449 71.60011719 194.36303711 72.00585938 C216.08725402 81.15289807 226.58157813 98.32493224 235.39111328 119.24023438 C240.51650429 131.8321354 244.73212804 144.73081497 248.92578125 157.65625 C249.1566745 158.36583359 249.38756775 159.07541718 249.62545776 159.8065033 C250.85655324 163.59588451 252.0697526 167.38998735 253.26318359 171.19140625 C253.77283213 172.78394375 254.28275294 174.37639415 254.79296875 175.96875 C255.01527664 176.69259888 255.23758453 177.41644775 255.46662903 178.16223145 C258.04326149 186.12478668 261.84308682 192.54016078 268.75 197.375 C274.81769569 200.35562245 279.95432497 201.49941704 286.66930473 201.50215852 C287.86500068 201.50507056 289.06069663 201.50798259 290.29262578 201.51098287 C291.60520537 201.50910266 292.91778497 201.50722245 294.27013969 201.50528526 C295.68522816 201.50682268 297.1003162 201.50879882 298.51540351 201.51117444 C302.42124673 201.51645984 306.32706784 201.5155125 310.23291326 201.51360132 C314.47582327 201.51262931 318.71872719 201.51745779 322.96163476 201.52158034 C330.40388086 201.52802202 337.84612135 201.53079739 345.28837013 201.53120613 C356.35558611 201.53185018 367.42279346 201.53823813 378.49000651 201.54595293 C395.96637154 201.55803883 413.44273617 201.56669557 430.91910417 201.57299107 C458.66642789 201.58301947 486.41373929 201.60227072 514.16105562 201.62453346 C524.83408092 201.63306448 535.50710643 201.64133058 546.18013191 201.64963722 C547.36599099 201.65056223 548.55185006 201.65148724 549.77364426 201.65244028 C578.01250638 201.67443893 606.25136987 201.69422571 634.49023438 201.71289062 C635.72608315 201.7137103 636.96193193 201.71452998 638.23523066 201.7153745 C667.06300819 201.73445541 695.89078564 201.75141734 724.71856689 201.76373291 C726.57770003 201.76452741 726.57770003 201.76452741 728.47439141 201.76533796 C738.46440922 201.76958949 748.45442705 201.77376583 758.4444449 201.77792276 C799.63329449 201.79512068 840.82212727 201.82233292 882.01096242 201.86108314 C887.82819161 201.86654499 893.64542091 201.87187797 899.4626503 201.87712479 C901.17998215 201.87867636 901.17998215 201.87867636 902.93200758 201.88025927 C921.35899461 201.89658446 939.78596987 201.902113 958.21296344 201.90342245 C976.7352584 201.90492699 995.25752139 201.91708445 1013.77980225 201.94017886 C1024.78341769 201.95355858 1035.78696333 201.95857764 1046.7905851 201.9516325 C1054.14426634 201.94780887 1061.4978858 201.95485116 1068.85155092 201.97064828 C1073.0392797 201.97933256 1077.22686552 201.98335346 1081.4145963 201.97407441 C1085.23201347 201.96570704 1089.04915569 201.97134671 1092.86654474 201.987682 C1094.87036867 201.99277552 1096.87421394 201.98334638 1098.87801838 201.97314596 C1113.0236747 202.06491102 1127.94092945 203.95455141 1139.12890625 213.37890625 C1147.01433791 221.49668948 1149.07265432 229.98239957 1149.25 241 C1149.26869141 241.76803955 1149.28738281 242.5360791 1149.30664062 243.32739258 C1149.12055656 260.91054766 1141.68612295 278.40411642 1136.28240967 294.86849976 C1134.46743047 300.40805351 1132.67084034 305.95362924 1130.87055206 311.49797058 C1130.17788949 313.63053571 1129.48444364 315.76284511 1128.79095459 317.8951416 C1124.36009693 331.52873417 1120.04644992 345.19850886 1115.75 358.875 C1109.50437301 378.73715364 1103.16033764 398.56557948 1096.75 418.375 C1089.94008778 439.41943433 1083.21674915 460.48912496 1076.578125 481.58837891 C1070.8754523 499.70791862 1065.08903976 517.79896446 1059.25 535.875 C1053.01206463 555.18626993 1046.84231349 574.51729433 1040.75 593.875 C1034.27194536 614.45835888 1027.70188312 635.01025375 1021.06433105 655.54272461 C1016.59251741 669.37778758 1012.15298107 683.2218584 1007.796875 697.09375 C1007.38778965 698.39538981 1006.97869141 699.69702558 1006.56958008 700.99865723 C1004.63901532 707.14342622 1002.71460956 713.29005786 1000.79882812 719.43945312 C997.68108059 729.41001595 994.51165666 739.3476151 990.93359375 749.1640625 C990.65811707 749.92565674 990.38264038 750.68725098 990.09881592 751.47192383 C988.03736765 757.00135157 985.44999646 761.75274923 981.75 766.375 C981.1725 767.261875 980.595 768.14875 980 769.0625 C968.89621835 780.47472002 953.48835212 780.75853719 938.60312867 780.99105537 C936.5373258 781.01408331 934.47151612 781.03650804 932.40570068 781.05838013 C930.22189397 781.09113802 928.03809919 781.12470077 925.85431647 781.1590215 C904.38654951 781.47383226 882.9176592 781.49347683 861.44811988 781.44708848 C855.87676929 781.43630939 850.30541269 781.43191694 844.73405457 781.42675781 C835.14324629 781.41718324 825.55244801 781.40419508 815.96164703 781.38903427 C800.78992692 781.36534856 785.61820587 781.35257766 770.44647217 781.34133911 C765.22687145 781.33734119 760.00727078 781.33327225 754.78767014 781.32917976 C753.48462488 781.32816054 752.18157963 781.32714131 750.83904816 781.32609119 C736.11323733 781.31442345 721.38742897 781.30053404 706.66162109 781.28564453 C705.65576384 781.28463179 705.65576384 781.28463179 704.62958625 781.28359858 C688.94020735 781.26776264 673.25083327 781.24977627 657.5614624 781.22729492 C656.88339647 781.22632365 656.20533054 781.22535238 655.50671716 781.22435168 C650.03701276 781.21650055 644.56730847 781.20858081 639.0976042 781.20064141 C615.88721765 781.16701267 592.67684041 781.1447594 569.46643043 781.13340485 C555.615514 781.12619817 541.76467396 781.10955436 527.91378561 781.08060409 C518.44833225 781.06160635 508.98290933 781.0535188 499.51743707 781.05400907 C494.06341915 781.05394611 488.60952116 781.04899812 483.15553093 781.03084183 C478.15937295 781.01430599 473.16340573 781.01175735 468.16722915 781.02009059 C466.36564201 781.0206621 464.5640443 781.01619685 462.76248577 781.00602923 C447.93049776 780.92684268 434.6595805 781.55362109 423.078125 791.86328125 C418.04826612 797.08759343 415.57853462 803.81018334 412.75 810.375 C407.99736587 821.2930812 403.00104881 832.00278585 397.4453125 842.5390625 C396.89496338 843.58811768 396.34461426 844.63717285 395.77758789 845.71801758 C394.43748535 848.27163317 393.09492683 850.82392295 391.75 853.375 C392.57751971 853.37560027 392.57751971 853.37560027 393.42175699 853.37621268 C453.49186257 853.41989274 513.56196464 853.46727578 573.63204956 853.53398132 C574.52952931 853.53497689 575.42700907 853.53597246 576.35168518 853.53699819 C595.85691551 853.55865735 615.36214504 853.58098009 634.86737383 853.60398628 C644.43290403 853.61526468 653.99843439 853.62639646 663.56396484 853.63745117 C664.51584386 853.63855374 665.46772287 853.6396563 666.4484467 853.64079228 C697.29474016 853.67645297 728.14103253 853.70243436 758.98733919 853.72338969 C790.68918241 853.74497739 822.3910013 853.77634332 854.09282219 853.81999113 C858.57174741 853.82615326 863.05067277 853.83220376 867.52959824 853.83818626 C868.41110432 853.83936715 869.29261041 853.84054803 870.2008288 853.84176469 C884.38359842 853.86047721 898.56635634 853.86889938 912.7491368 853.87346124 C927.01188322 853.87826887 941.27458503 853.89394649 955.53730752 853.92066566 C964.00827645 853.93620594 972.47915738 853.94346579 980.95013977 853.93876929 C986.6145388 853.9364514 992.27885487 853.94503264 997.94322777 853.96232411 C1001.16703944 853.97185783 1004.39063298 853.97513326 1007.61445715 853.96839563 C1044.86361004 853.89848677 1044.86361004 853.89848677 1058.1328125 865.44921875 C1068.20771415 876.10036016 1069.22701597 887.13736893 1069.0234375 901.14453125 C1068.66272976 911.21042007 1064.94226606 919.29338419 1057.75 926.375 C1045.27675849 936.21304964 1031.09228045 936.94503322 1015.9375 936.625 C1014.26239141 936.60488247 1012.58725919 936.58664109 1010.91210938 936.5703125 C1006.85747626 936.5267823 1002.80400814 936.4580543 998.75 936.375 C999.0797583 937.32729492 999.4095166 938.27958984 999.74926758 939.26074219 C1002.3913695 946.97732943 1004.75889493 954.63171089 1006.4375 962.625 C1006.64463623 963.60098145 1006.85177246 964.57696289 1007.06518555 965.58251953 C1014.01405977 999.54559095 1012.60025339 1036.60550162 993.5 1066.625 C972.601805 1098.13815119 938.55954086 1120.31171972 901.75 1128.375 C871.02302926 1134.46862789 839.45485174 1127.11207957 813.53515625 1109.98046875 C800.77931599 1101.30260741 788.36671009 1091.52136661 778.75 1079.375 C778.34281738 1078.86372559 777.93563477 1078.35245117 777.51611328 1077.82568359 C756.94493841 1051.72836668 747.7597265 1020.29736293 751.25390625 987.1796875 C753.32444367 970.12292746 757.96707393 954.567193 763.75 938.375 C697.09 938.705 630.43 939.035 561.75 939.375 C563.73 946.305 565.71 953.235 567.75 960.375 C568.59998211 964.12656489 569.40480628 967.78777445 570.0625 971.5625 C570.21783203 972.38556641 570.37316406 973.20863281 570.53320312 974.05664062 C576.47902714 1006.54176498 572.02412111 1040.81903078 553.5546875 1068.6875 C548.71603108 1075.29639658 543.36775019 1081.42156702 537.75 1087.375 C537.08871094 1088.10074219 536.42742188 1088.82648438 535.74609375 1089.57421875 C515.49638454 1110.97666283 485.10829875 1126.97100569 455.42700195 1128.55200195 C439.17281018 1128.84165777 423.50610687 1128.95138982 407.75 1124.375 C407.02216309 1124.16601074 406.29432617 1123.95702148 405.54443359 1123.74169922 C387.61181203 1118.40151412 372.14523382 1109.20076198 357.75 1097.375 C357.19441406 1096.91867187 356.63882812 1096.46234375 356.06640625 1095.9921875 C332.96865853 1076.6781784 319.44911395 1050.05488135 315.75 1020.375 C315.62682986 1017.74561475 315.54051417 1015.14145736 315.51171875 1012.51171875 C315.50206085 1011.77041718 315.49240295 1011.0291156 315.48245239 1010.26535034 C315.45765531 1007.86434885 315.4450504 1005.46361581 315.4375 1003.0625 C315.43454926 1002.24119598 315.43159851 1001.41989197 315.42855835 1000.57369995 C315.41656006 985.84785782 316.7791991 971.82747161 319.75 957.375 C319.90968262 956.59012207 320.06936523 955.80524414 320.23388672 954.99658203 C320.86055735 951.95848824 321.5162029 948.93191335 322.234375 945.9140625 C322.88267645 943.15348388 322.88267645 943.15348388 322.75 939.375 C321.20892578 938.82972656 321.20892578 938.82972656 319.63671875 938.2734375 C305.4738171 933.17486146 290.84195747 927.78882417 283.71484375 913.55859375 C278.53830293 901.84326453 280.53046167 890.1134219 284.75 878.375 C287.94711606 870.56256788 291.8240214 863.05454752 295.65014648 855.53643799 C296.86891871 853.14130032 298.08391315 850.74426439 299.29882812 848.34716797 C307.79345601 831.60085669 316.34907694 814.8874049 325.11282349 798.28015137 C334.56572158 780.36140101 343.98379218 762.39128395 352.75 744.125 C353.14058594 743.31756348 353.53117187 742.51012695 353.93359375 741.67822266 C354.28550781 740.93362793 354.63742187 740.1890332 355 739.421875 C355.29390625 738.80151367 355.5878125 738.18115234 355.890625 737.54199219 C362.15852899 721.73690247 357.80285521 708.61077152 352.1875 693.5625 C351.4979533 691.65992701 350.81074564 689.75650487 350.12573242 687.85229492 C348.71077682 683.92924667 347.28325658 680.01114372 345.84472656 676.09667969 C343.90326641 670.80750657 342.00119817 665.50518589 340.1171875 660.1953125 C339.52711893 658.53319627 338.93703101 656.8710869 338.34692383 655.20898438 C338.05395416 654.38374268 337.7609845 653.55850098 337.45913696 652.70825195 C335.91898586 648.37836254 334.367448 644.05256011 332.81640625 639.7265625 C329.88061958 631.53602622 326.9518208 623.34301874 324.02734375 615.1484375 C313.79783414 586.48571412 303.54456 557.83160426 293.26864624 529.18548584 C290.55915061 521.63199157 287.85135369 514.0778901 285.14453125 506.5234375 C274.17709481 475.91595725 263.18674717 445.31674815 252.1877594 414.72059631 C248.7271397 405.0940013 245.26758734 395.46702316 241.80859375 385.83984375 C236.55717104 371.22402919 231.3046684 356.60860315 226.05084229 341.99365234 C225.20702176 339.64633234 224.36322937 337.29900222 223.51947021 334.95166016 C218.3443313 320.55470122 213.16387503 306.15967093 207.97369385 291.76812744 C207.11611967 289.39019731 206.25866747 287.01222319 205.40130615 284.63421631 C202.7530399 277.28913504 200.10291552 269.94472907 197.44924927 262.60159683 C196.27172239 259.34317021 195.09481072 256.08452516 193.9196167 252.82525635 C192.61637888 249.21220538 191.31047823 245.60012761 190.00390625 241.98828125 C189.61724289 240.91462814 189.23057953 239.84097504 188.8321991 238.73478699 C187.3403505 234.61777843 185.85676664 230.52782726 184.07128906 226.52807617 C182.77601706 223.43708616 182.00412298 220.59414523 181.35546875 217.3125 C181.12545166 216.19311035 180.89543457 215.0737207 180.65844727 213.92041016 C180.30157837 212.16543213 180.30157837 212.16543213 179.9375 210.375 C177.75530158 200.15868461 175.31362961 190.78891936 170.75 181.375 C170.21632813 180.26511719 169.68265625 179.15523437 169.1328125 178.01171875 C155.11852092 150.5320825 130.64048126 132.15121025 101.75 122.375 C94.25114886 119.95411105 86.67626629 117.76917503 79.09472656 115.62353516 C52.4633076 108.07069011 27.21395403 96.87382266 1.92041016 85.75390625 C-0.80912664 84.56674902 -3.5474848 83.41185534 -6.30078125 82.28125 C-20.10271813 76.58598056 -31.69263809 69.35422393 -37.625 55.125 C-41.94181677 43.63851363 -40.537528 32.38205885 -35.625 21.25 C-30.18894252 11.44057297 -22.59602273 5.4325574 -12.25 1.375 C-8.18884939 0.22163118 -4.19931721 0.07909673 0 0 Z M293.75 284.375 C295.3320607 289.72992533 296.92618458 295.06468226 298.79272461 300.32885742 C299.16916107 301.39394028 299.54559753 302.45902313 299.93344116 303.55638123 C300.33567902 304.68633011 300.73791687 305.81627899 301.15234375 306.98046875 C301.7970311 308.79980675 301.7970311 308.79980675 302.45474243 310.65589905 C303.61985824 313.9426539 304.78841141 317.22817583 305.9580574 320.51332092 C306.69216733 322.57561166 307.42550968 324.63817392 308.15866089 326.70080566 C317.86155414 353.99365394 327.66906024 381.24788603 337.66937256 408.43334961 C338.70955125 411.26489168 339.74529088 414.09801761 340.77978516 416.93164062 C342.27576706 421.02505859 343.78704619 425.11244007 345.3132019 429.19470215 C345.84317134 430.61807481 346.36839711 432.04322527 346.88821411 433.47033691 C351.20815424 445.40233899 351.20815424 445.40233899 360.20703125 453.8984375 C360.98433594 454.17945313 361.76164062 454.46046875 362.5625 454.75 C363.33207031 455.04648437 364.10164063 455.34296875 364.89453125 455.6484375 C373.55187178 457.85126286 382.49196986 457.51269808 391.35766602 457.48852539 C392.81710305 457.48824286 394.27654022 457.48840254 395.73597717 457.4889679 C399.67334781 457.4892533 403.61068761 457.48339824 407.54805112 457.47639394 C411.67200134 457.47011749 415.79595236 457.46955322 419.91990662 457.46836853 C427.71820966 457.46526782 435.51649859 457.4570715 443.31479543 457.44701904 C452.19754178 457.43581866 461.08028882 457.43033758 469.96304047 457.42532361 C488.2253683 457.41488778 506.48768301 457.39731286 524.75 457.375 C524.15037986 442.81261353 522.87042389 428.36749366 521.38671875 413.87109375 C521.15079108 411.53592573 520.91518728 409.20072498 520.67988586 406.86549377 C520.18763118 401.98986952 519.69230901 397.11457034 519.19458008 392.23950195 C518.56773352 386.09854431 517.9473449 379.95695586 517.32891655 373.81514549 C516.04330035 361.05295456 514.73298989 348.29355582 513.39447021 335.5368042 C512.98211036 331.60662151 512.57552015 327.67593785 512.17584229 323.7444458 C511.75878364 319.64869353 511.32625782 315.55493231 510.87882423 311.46238899 C510.72533459 310.03604378 510.57733984 308.60909406 510.43546104 307.18154716 C509.62829126 297.46529227 509.62829126 297.46529227 504.75 289.375 C498.97686049 285.01569058 494.77985564 284.22828922 487.72053528 284.25474548 C486.89309443 284.25389106 486.06565358 284.25303663 485.21313876 284.25215632 C482.43088908 284.25050464 479.64869923 284.25601782 476.86645508 284.26147461 C474.87589011 284.26175657 472.88532504 284.26159857 470.89476013 284.2610321 C465.4818782 284.26074449 460.06901831 284.26663539 454.65614152 284.27360606 C449.0026703 284.27984561 443.34919862 284.28044388 437.69572449 284.28163147 C426.986031 284.28474301 416.27634768 284.29295402 405.56665868 284.30298096 C393.37577042 284.31414759 381.18488168 284.31965394 368.99398959 284.32467639 C343.91265408 284.33513676 318.83132761 284.35273279 293.75 284.375 Z M852.75 285.375 C845.94472187 346.43644934 845.94472187 346.43644934 839.22583008 407.50756836 C838.85322659 410.92515321 838.47790376 414.34242699 838.10083008 417.75952148 C837.6198137 422.11890311 837.1429683 426.47872164 836.66919136 430.8388958 C836.494829 432.43732029 836.31905147 434.03559122 836.14167595 435.63368416 C835.90153022 437.7997237 835.66678841 439.96628547 835.43334961 442.13305664 C835.30061142 443.34546524 835.16787323 444.55787384 835.03111267 445.80702209 C834.72516912 449.69016197 834.70312332 453.48148854 834.75 457.375 C851.5461631 457.3985237 868.34232073 457.41607363 885.1384964 457.42681217 C892.93999284 457.43193426 900.74147895 457.43889744 908.54296875 457.45043945 C915.3551546 457.46051289 922.16733295 457.46688301 928.97952604 457.46908849 C932.57523242 457.47037448 936.17091741 457.47332221 939.76661682 457.48073006 C948.76171224 457.49823193 957.75525861 457.4641661 966.75 457.375 C968.51312027 457.36393282 968.51312027 457.36393282 970.31185913 457.35264206 C973.63028353 457.3228388 976.94604367 457.25827304 980.26367188 457.18139648 C981.22996773 457.17605676 982.19626358 457.17071703 983.19184113 457.16521549 C989.26763807 456.97188303 993.43008276 455.81989318 997.75 451.375 C1001.65535381 445.52835944 1003.52234856 438.54444433 1005.6640625 431.91015625 C1006.03118347 430.78914017 1006.39830444 429.66812408 1006.77655029 428.51313782 C1007.9825738 424.82335532 1009.17904924 421.1305585 1010.375 417.4375 C1011.00624091 415.49790242 1011.63838751 413.55860141 1012.27054024 411.61930084 C1019.09827994 390.66602215 1025.75875656 369.66041048 1032.359375 348.63452148 C1035.7794257 337.74532096 1039.21916675 326.8644192 1042.765625 316.015625 C1043.23224045 314.58780197 1043.23224045 314.58780197 1043.70828247 313.13113403 C1045.14609794 308.73772108 1046.59080227 304.34670051 1048.04443359 299.95849609 C1048.54268062 298.4436972 1049.04089262 296.92888677 1049.5390625 295.4140625 C1049.76619934 294.73579407 1049.99333618 294.05752563 1050.22735596 293.35870361 C1051.14520218 290.55888546 1051.75 288.34550601 1051.75 285.375 C986.08 285.375 920.41 285.375 852.75 285.375 Z M576.75 286.375 C576.75 292.30825256 576.75485086 297.67256504 577.35069275 303.47972107 C577.41532402 304.12318279 577.47995529 304.76664451 577.54654509 305.42960507 C577.76054273 307.54790744 577.98166818 309.66539894 578.20288086 311.78295898 C578.3593164 313.31644946 578.51531521 314.84998454 578.6709137 316.38356018 C579.09192024 320.51988972 579.51923801 324.65554432 579.94793391 328.7910831 C580.39648022 333.12683285 580.8397793 337.4631195 581.28382874 341.79933167 C582.02936069 349.07158416 582.77892906 356.34341185 583.53100586 363.61499023 C584.40066481 372.02384115 585.26427592 380.43329636 586.12460417 388.84310669 C586.9532527 396.94219036 587.78577792 405.04087078 588.62021065 413.13936043 C588.97505868 416.58375046 589.32860946 420.02827002 589.68113518 423.47289848 C590.0957534 427.52225832 590.51377996 431.5712521 590.93446922 435.61998558 C591.08843398 437.10700141 591.24123105 438.59413866 591.39278793 440.08140182 C591.59946724 442.10764812 591.81076906 444.13342134 592.02232361 446.15916443 C592.13939132 447.29380851 592.25645903 448.42845259 592.37707424 449.59747982 C592.67243314 452.45425366 592.67243314 452.45425366 593.75 455.375 C650.84 455.375 707.93 455.375 766.75 455.375 C770.9575 415.4965625 770.9575 415.4965625 775.25 374.8125 C776.5812793 362.22178345 776.5812793 362.22178345 777.93945312 349.37670898 C778.73162442 341.85119381 778.73162442 341.85119381 779.52282715 334.32557678 C779.87521718 330.9740277 780.22965198 327.62270165 780.58532715 324.27149963 C781.03920269 319.99440574 781.48957406 315.71695639 781.93743038 311.43922818 C782.10222766 309.87088105 782.26824677 308.3026617 782.43563938 306.73458946 C782.66200777 304.61237463 782.88385529 302.48973272 783.10461426 300.3669281 C783.2299781 299.17873694 783.35534195 297.99054579 783.4845047 296.76634884 C783.75493165 293.31200468 783.75 289.83991331 783.75 286.375 C715.44 286.375 647.13 286.375 576.75 286.375 Z M379.75 524.375 C381.99549233 532.01675152 381.99549233 532.01675152 384.56494141 539.55371094 C384.89093323 540.44743408 385.21692505 541.34115723 385.55279541 542.26196289 C385.89888855 543.20160889 386.24498169 544.14125488 386.6015625 545.109375 C386.97247009 546.12346436 387.34337769 547.13755371 387.7255249 548.18237305 C388.93906073 551.49767372 390.15688767 554.81137837 391.375 558.125 C392.23404969 560.46771368 393.09293392 562.81048805 393.95166016 565.15332031 C396.13498665 571.10673662 398.32250139 577.0586031 400.51196289 583.00976562 C401.66417379 586.14170706 402.81559413 589.27393789 403.96679688 592.40625 C407.73349374 602.65126059 411.51559014 612.8904421 415.31672668 623.12272644 C417.37336948 628.65980635 419.42431994 634.19894205 421.46826172 639.74072266 C423.6169346 645.56622934 425.77283285 651.38901078 427.93618774 657.20908165 C429.11109817 660.37061559 430.28284537 663.53323611 431.44671631 666.69885254 C432.74346412 670.22053179 434.05196364 673.73763083 435.36328125 677.25390625 C435.7479808 678.30689407 436.13268036 679.3598819 436.52903748 680.44477844 C439.45343157 688.62725907 439.45343157 688.62725907 445.60377884 694.48058891 C447.94345736 695.45562096 449.54162387 695.62178701 452.06536865 695.61550903 C452.92069687 695.61825836 453.77602509 695.62100769 454.65727234 695.62384033 C455.58731583 695.61664978 456.51735931 695.60945923 457.47558594 695.60205078 C458.95412804 695.60248886 458.95412804 695.60248886 460.46253967 695.60293579 C463.71990773 695.60154269 466.97704691 695.58598223 470.234375 695.5703125 C472.49310176 695.5665823 474.75183013 695.56373536 477.01055908 695.56173706 C482.9552253 695.55410114 488.89979378 695.53445291 494.84442139 695.5123291 C500.91059039 695.49186985 506.97677519 695.48273517 513.04296875 695.47265625 C524.94535544 695.45120706 536.84766959 695.41707153 548.75 695.375 C548.09293675 682.02455181 546.90922383 668.75042645 545.60546875 655.44921875 C545.39206891 653.25049331 545.17888296 651.0517471 544.96589661 648.85298157 C544.51992271 644.25635905 544.07172006 639.65996116 543.62182617 635.0637207 C543.05661879 629.2881241 542.49646983 623.5120507 541.93775749 617.73582268 C540.76575017 605.62476458 539.57052718 593.51621793 538.35345459 581.40960693 C537.96093969 577.5004803 537.57539519 573.59078646 537.19732666 569.68023682 C536.78323594 565.39956967 536.35416032 561.12070198 535.9120121 556.84284401 C535.75708368 555.31913454 535.60760891 553.79485855 535.46416283 552.27002525 C534.65825726 543.74390251 534.00606962 536.88248302 527.8984375 530.4140625 C527.02058594 529.71410156 527.02058594 529.71410156 526.125 529 C525.53460937 528.51789062 524.94421875 528.03578125 524.3359375 527.5390625 C520.5079201 524.72933544 516.47639665 525.02178145 511.89379883 524.81860352 C510.96547399 524.77642228 510.03714914 524.73424105 509.08069324 524.69078159 C496.54101195 524.17795574 483.99689385 524.25107746 471.44921875 524.27734375 C468.78880226 524.27921383 466.12838848 524.28068429 463.4679718 524.28163147 C457.24253543 524.28470501 451.01711722 524.29286311 444.79168874 524.30298096 C437.68855831 524.31426775 430.58542688 524.31968378 423.48228967 524.32467639 C408.90485054 524.33505041 394.32742552 524.35257038 379.75 524.375 Z M601.75 525.375 C606.01724702 576.68972237 606.01724702 576.68972237 610.6852417 627.96502686 C611.03157628 631.61700059 611.3735297 635.26938026 611.71558666 638.92175674 C612.05436113 642.53394907 612.39555026 646.14591018 612.73748207 649.75780487 C612.89559551 651.4303334 613.05306837 653.10292266 613.20979881 654.77558136 C613.63079462 659.25990367 614.06876028 663.74190949 614.53210068 668.22206116 C614.68000453 669.68341466 614.82130609 671.1454485 614.95666885 672.60801697 C615.15891576 674.78321489 615.38253835 676.95530542 615.6105957 679.12792969 C615.7338472 680.38047546 615.85709869 681.63302124 615.98408508 682.92352295 C617.13995077 688.1322528 619.47804133 691.32916731 623.5625 694.6875 C629.97079307 698.08012574 637.19304033 697.51488339 644.27514648 697.48852539 C645.31004715 697.48867142 646.34494781 697.48881744 647.41120911 697.4889679 C650.81452569 697.48827407 654.21778679 697.48050652 657.62109375 697.47265625 C659.98763499 697.47079019 662.35417662 697.46936717 664.72071838 697.46836853 C670.93656488 697.46455818 677.15238786 697.45474056 683.3682251 697.44366455 C689.71618329 697.43341855 696.06414529 697.42886408 702.41210938 697.42382812 C714.85808323 697.41311695 727.30403965 697.39605835 739.75 697.375 C743.72517807 664.0379587 747.3491964 630.66488456 750.90010059 597.28048813 C751.49638949 591.67718796 752.09663913 586.07431679 752.69767362 580.47152394 C753.35669057 574.32668378 754.01220245 568.18147469 754.66632652 562.03611183 C754.94163899 559.45362609 755.21794322 556.87124587 755.49527931 554.28897667 C755.87852835 550.71729696 756.257776 547.14521433 756.63598633 543.57299805 C756.80654289 541.99550278 756.80654289 541.99550278 756.98054504 540.38613892 C757.08270325 539.41350601 757.18486145 538.44087311 757.29011536 537.43876648 C757.37948773 536.60047648 757.46886011 535.76218649 757.56094074 534.89849377 C757.77325711 532.06457255 757.75 529.21686342 757.75 526.375 C706.27 526.045 654.79 525.715 601.75 525.375 Z M827.75 527.375 C826.13224533 536.95214146 826.13224533 536.95214146 824.86410522 546.54145813 C824.71831528 547.8267894 824.57252533 549.11212067 824.4223175 550.43640137 C824.26894567 551.8173754 824.11564286 553.1983571 823.96240234 554.5793457 C823.79488692 556.06730587 823.62709839 557.55523532 823.45906067 559.0431366 C823.00780572 563.04656376 822.56061453 567.05043466 822.11441755 571.05442834 C821.74039637 574.4072317 821.36432655 577.759804 820.98826277 581.11237878 C820.10124053 589.02031451 819.21750294 596.92861242 818.3359375 604.8371582 C817.427951 612.9822755 816.51477696 621.12679925 815.59900892 629.27104503 C814.81058846 636.28418701 814.02517907 643.29766162 813.24221957 650.31141537 C812.77554121 654.49176307 812.30778204 658.67198223 811.83720016 662.85189247 C811.39540148 666.77746182 810.95738344 670.70343517 810.52223778 674.62974739 C810.36232737 676.06698146 810.20111042 677.50407089 810.0384655 678.94099808 C809.8160289 680.90808271 809.5988616 682.87576103 809.38192749 684.84346008 C809.25916128 685.94232198 809.13639507 687.04118387 809.00990868 688.17334461 C808.73278799 691.58702421 808.70626815 694.95158906 808.75 698.375 C818.06247188 698.39850867 827.37493305 698.41610614 836.68742847 698.42681217 C841.0148558 698.43195892 845.34226236 698.43890051 849.66967773 698.45043945 C860.28958806 698.4776448 870.90819708 698.46040023 881.5279007 698.38742828 C883.6698225 698.37544844 885.81160042 698.37165213 887.95355225 698.37030029 C891.68241067 698.35953705 895.40844108 698.30979951 899.13671875 698.24609375 C900.19824661 698.24899918 901.25977448 698.2519046 902.35346985 698.25489807 C909.62797469 698.06650982 914.26254029 696.18783417 919.75 691.375 C925.82813013 684.57459904 928.15208829 675.1066473 930.8125 666.5625 C931.30652532 665.00867841 931.80118285 663.45505772 932.29638672 661.90161133 C938.72662087 641.6124413 944.85050388 621.22246441 951.01196289 600.8503418 C955.11727714 587.27850395 959.23570702 573.71097995 963.44626999 560.17135048 C963.8628884 558.83092045 964.27858728 557.49020416 964.69322586 556.14916039 C967.1982912 548.05389079 969.88652182 540.06238917 972.82022095 532.1146698 C973.85712443 529.54153973 973.85712443 529.54153973 973.75 527.375 C925.57 527.375 877.39 527.375 827.75 527.375 Z M397.75 955.375 C384.49615158 970.49591229 380.54084457 987.19679925 381.51171875 1006.74951172 C382.92160874 1022.28430364 391.54037849 1035.88279427 402.75 1046.375 C416.9765058 1057.34973304 433.44985993 1062.00331358 451.21484375 1059.98046875 C468.37846672 1057.18890363 482.15799924 1048.94646003 493.08984375 1035.49609375 C503.50086956 1020.93616752 506.3670528 1004.47570044 504.359375 986.96875 C501.29906989 971.11793892 491.96719159 956.96269117 478.81933594 947.66748047 C452.76298697 930.35210237 420.03545775 933.33676603 397.75 955.375 Z M852.75 943.375 C851.96625 943.77203125 851.1825 944.1690625 850.375 944.578125 C839.55838606 950.45965883 831.25472642 959.4189911 825.75 970.375 C825.36199219 971.13683594 824.97398437 971.89867187 824.57421875 972.68359375 C820.63598364 980.94672706 819.37573456 989.08150961 819.4375 998.1875 C819.44313965 999.0640625 819.4487793 999.940625 819.45458984 1000.84375 C819.76635926 1017.56199917 826.26859626 1031.27852105 837.75 1043.375 C849.27129308 1054.45464352 864.25908883 1060.18365649 880.1875 1060.75 C897.93056124 1060.07555615 913.68744447 1053.81361621 926.1953125 1041.16015625 C939.36882642 1026.79820606 943.65921012 1010.64072277 942.88916016 991.61328125 C941.92153986 976.04987274 932.985914 961.73871976 921.75 951.375 C902.77718338 935.60927877 874.82274654 931.16810229 852.75 943.375 Z " fill="#231F20" transform="translate(405.25,14.625)"/>
</svg>
