<?xml version="1.0" encoding="UTF-8"?>
<svg version="1.1" xmlns="http://www.w3.org/2000/svg" width="348" height="350">
<path d="M0 0 C1.05006226 0.00373123 1.05006226 0.00373123 2.12133789 0.00753784 C25.60784907 0.1361112 49.60825358 4.27592668 70.41015625 15.734375 C73.37622552 17.40822756 73.37622552 17.40822756 76.90234375 18.83203125 C79.83407908 20.10480065 82.21335304 21.42186865 84.8125 23.25 C87.48919023 25.09505303 90.14331919 26.82368989 93 28.375 C96.43619873 30.38485209 99.3501532 32.68414328 102.3125 35.3125 C102.9415625 35.86164062 103.570625 36.41078125 104.21875 36.9765625 C105.58039024 38.16537918 106.93974535 39.35681795 108.296875 40.55078125 C110.18249177 42.19886878 112.08778913 43.82043472 114 45.4375 C133.70347 62.38958455 148.12751231 86.85953053 156.3125 111.3125 C156.55347412 111.98796875 156.79444824 112.6634375 157.04272461 113.359375 C166.4239214 140.14733585 167.95770631 172.67642742 161.3125 200.3125 C161.01759624 201.68838876 160.72466477 203.06470157 160.43359375 204.44140625 C158.6747788 212.40201273 156.1185377 219.69973255 152.75390625 227.12890625 C151.48365999 229.93446371 150.3449595 232.74796067 149.25 235.625 C142.09884236 253.62012619 129.42427785 268.38848812 116.3125 282.3125 C115.64476562 283.034375 114.97703125 283.75625 114.2890625 284.5 C108.99901463 290.03557752 103.01225472 294.62081343 96.87158203 299.15917969 C95.48891899 300.18199525 94.11670451 301.21890206 92.74609375 302.2578125 C82.60231648 309.71106565 70.98906089 314.75322429 59.3125 319.3125 C58.2709375 319.73402344 57.229375 320.15554688 56.15625 320.58984375 C20.29443348 334.37318211 -25.53049692 333.77660631 -60.6875 318.3125 C-62.2034375 317.73048828 -62.2034375 317.73048828 -63.75 317.13671875 C-86.54898646 308.31423862 -105.74794108 293.01161775 -122.3125 275.3125 C-123.17101562 274.40757812 -123.17101562 274.40757812 -124.046875 273.484375 C-127.06064136 270.26034587 -129.52779949 267.18939357 -131.6875 263.3125 C-132.60635955 262.06933707 -133.54364026 260.83955053 -134.5 259.625 C-140.66246323 251.48446216 -145.33683738 242.52357589 -149.6875 233.3125 C-150.10902344 232.42433594 -150.53054687 231.53617188 -150.96484375 230.62109375 C-164.50595034 200.20768183 -168.59579984 162.77500934 -160.6875 130.3125 C-160.35685547 128.94617432 -160.35685547 128.94617432 -160.01953125 127.55224609 C-151.69999686 94.34563891 -134.52994735 62.26642217 -107.6875 40.3125 C-106.70265625 39.49007812 -105.7178125 38.66765625 -104.703125 37.8203125 C-74.92119585 13.37167208 -38.65669229 -0.22118909 0 0 Z " fill="#FCFDFD" transform="translate(171.6875,7.6875)"/>
<path d="M0 0 C0.99346436 0.00088623 1.98692871 0.00177246 3.01049805 0.00268555 C12.70006314 0.15499101 21.73122408 1.87832966 31.0625 4.375 C32.09117187 4.63667969 33.11984375 4.89835937 34.1796875 5.16796875 C50.67513923 9.70547143 67.23215577 21.23772214 76.53125 35.625 C82.23360079 45.86595653 83.73724056 55.47425423 84.25512695 67.02807617 C84.58289892 73.01417301 85.67309952 77.72957112 88.17773438 83.19238281 C90.67056694 89.34192011 88.75707502 94.86410559 86.77734375 100.89453125 C86.11891126 103.179256 85.83593782 105.13848918 85.6875 107.5 C85.29198943 112.02012082 84.07759732 116.18110744 82.75 120.5 C82.54906738 121.16918457 82.34813477 121.83836914 82.14111328 122.52783203 C80.05870252 129.07878287 77.44208056 134.74879593 71.875 139.0625 C68.93990975 141.34413788 67.60799566 142.63794766 67.0625 146.375 C66.051875 146.33375 65.04125 146.2925 64 146.25 C61.12211133 146.64217721 60.24521757 147.15590616 58.35546875 149.421875 C57.21628863 151.18266863 56.08917964 152.95131574 54.97265625 154.7265625 C52.41156572 158.27752238 49.35442257 160.52117732 45.78515625 163 C45.21667969 163.45375 44.64820313 163.9075 44.0625 164.375 C44.0625 165.035 44.0625 165.695 44.0625 166.375 C44.65675781 166.643125 45.25101563 166.91125 45.86328125 167.1875 C52.8834352 170.50651524 58.9376446 174.62067551 65.0625 179.375 C65.7121875 179.86871094 66.361875 180.36242187 67.03125 180.87109375 C79.57769696 190.93676597 87.93578922 205.72761108 91.0625 221.375 C91.0625 225.665 91.0625 229.955 91.0625 234.375 C31.6625 234.375 -27.7375 234.375 -88.9375 234.375 C-87.61604122 210.58874188 -81.16394827 196.70347172 -64.4609375 180.6171875 C-53.72461539 171.07748334 -37.7449312 160.375 -22.9375 160.375 C-24.23180997 163.81875505 -25.73367662 166.89076565 -27.65234375 170.02734375 C-28.17376953 170.88650391 -28.69519531 171.74566406 -29.23242188 172.63085938 C-30.04549805 173.95827148 -30.04549805 173.95827148 -30.875 175.3125 C-35.69499313 183.18528326 -35.69499313 183.18528326 -39.9375 191.375 C-39.40898437 191.60445312 -38.88046875 191.83390625 -38.3359375 192.0703125 C-35.1524287 193.80205833 -32.39647269 196.01024739 -29.5625 198.25 C-28.45205399 199.12434651 -27.34008282 199.99675964 -26.2265625 200.8671875 C-25.68588135 201.29249756 -25.1452002 201.71780762 -24.58813477 202.15600586 C-22.94690129 203.36805715 -21.25639013 204.39162473 -19.50390625 205.43359375 C-18.65699219 206.07425781 -17.81007813 206.71492187 -16.9375 207.375 C-16.73828125 209.41796875 -16.73828125 209.41796875 -17.25 211.5625 C-17.55468456 213.95411143 -17.55468456 213.95411143 -16.9375 216.375 C-13.66189312 219.93057328 -9.89486517 222.62253093 -5.9375 225.375 C-5.26203125 225.97570312 -4.5865625 226.57640625 -3.890625 227.1953125 C-1.99066876 228.57258172 -1.99066876 228.57258172 0.35546875 228.375 C6.57191755 226.07859178 12.74569272 221.39536143 17.0625 216.375 C17.73230197 213.69163187 17.51729126 212.04811132 17.07421875 209.3515625 C17.0625 207.375 17.0625 207.375 18.33203125 205.8359375 C19.66271141 204.86570635 21.02839321 203.94241387 22.41796875 203.05859375 C25.79871949 200.90629897 28.90617558 198.46497601 32.0625 196 C33.20776777 195.11645392 34.3535578 194.23358417 35.5 193.3515625 C36.345625 192.69929687 37.19125 192.04703125 38.0625 191.375 C37.53743172 186.15754934 36.2826441 182.14848889 34 177.4375 C33.45214844 176.29410156 32.90429688 175.15070313 32.33984375 173.97265625 C31.91832031 173.11542969 31.49679688 172.25820312 31.0625 171.375 C29.763125 171.54 28.46375 171.705 27.125 171.875 C22.40830713 172.4065638 17.80611065 172.45029541 13.0625 172.375 C12.69125 173.550625 12.69125 173.550625 12.3125 174.75 C10.84455935 177.83267536 10.16257034 178.16971871 7.0625 179.375 C3.04875218 180.0537476 -1.13337385 180.4990786 -4.69921875 178.27734375 C-7.16820764 175.62441873 -7.94160839 173.3489802 -8.5 169.8125 C-7.85179589 165.85125263 -6.74950626 164.18700626 -3.9375 161.375 C-0.49103029 159.65176515 3.29396718 159.862006 7.0625 160.375 C8.740798 161.69366272 10.40864767 163.02580468 12.0625 164.375 C15.59144948 164.28756309 15.59144948 164.28756309 19.0625 163.375 C20.01125 163.230625 20.96 163.08625 21.9375 162.9375 C22.63875 162.751875 23.34 162.56625 24.0625 162.375 C24.3925 161.715 24.7225 161.055 25.0625 160.375 C26.01125 160.313125 26.96 160.25125 27.9375 160.1875 C34.5262504 159.39956696 40.73514352 155.02560044 45.03125 150.1328125 C46.04057112 148.74252214 47.01583999 147.32630513 47.94140625 145.87890625 C48.31136719 145.38261719 48.68132812 144.88632813 49.0625 144.375 C49.7225 144.375 50.3825 144.375 51.0625 144.375 C51.0625 142.725 51.0625 141.075 51.0625 139.375 C50.34964844 139.78492188 49.63679687 140.19484375 48.90234375 140.6171875 C35.84217886 147.96462885 35.84217886 147.96462885 30.87109375 146.91015625 C30.27425781 146.73355469 29.67742187 146.55695313 29.0625 146.375 C29.80693359 145.91673828 29.80693359 145.91673828 30.56640625 145.44921875 C36.91605535 141.17194089 40.33084714 135.97256225 44.0625 129.375 C44.64 128.405625 45.2175 127.43625 45.8125 126.4375 C48.69598815 119.37295404 50.58400544 112.02374648 50.0625 104.375 C49.17691406 105.35082031 48.29132813 106.32664062 47.37890625 107.33203125 C42.17182543 111.78195667 36.55167192 111.21979866 30 111.0625 C28.84177734 111.07732422 27.68355469 111.09214844 26.49023438 111.10742188 C17.09086171 111.01564167 17.09086171 111.01564167 13.33984375 107.96484375 C10.38829791 104.60828304 9.0625 102.86087403 9.0625 98.375 C4.4425 98.375 -0.1775 98.375 -4.9375 98.375 C-5.2675 100.025 -5.5975 101.675 -5.9375 103.375 C-11.93322964 110.15964144 -11.93322964 110.15964144 -16.49365234 110.6496582 C-19.76699017 110.67788118 -23.03902241 110.69671587 -26.3125 110.6875 C-27.44945312 110.70361328 -28.58640625 110.71972656 -29.7578125 110.73632812 C-30.85609375 110.73697266 -31.954375 110.73761719 -33.0859375 110.73828125 C-34.08802246 110.74126221 -35.09010742 110.74424316 -36.12255859 110.74731445 C-40.15919232 110.2134145 -42.86274112 108.61428987 -45.51953125 105.55078125 C-46.65885417 103.82552083 -47.79817708 102.10026042 -48.9375 100.375 C-48.25802159 106.04749954 -46.98518439 111.42543082 -45.5 116.9375 C-45.17418945 118.1740332 -45.17418945 118.1740332 -44.84179688 119.43554688 C-42.3415708 128.82828808 -39.91194419 137.27823827 -31.4765625 143.0625 C-29.32668022 144.25612549 -27.17828392 145.36385261 -24.9375 146.375 C-24.9375 146.705 -24.9375 147.035 -24.9375 147.375 C-31.652016 147.06979473 -40.11078865 144.20171135 -44.9375 139.375 C-46.78641946 139.14136119 -48.64238031 138.96196365 -50.5 138.8125 C-51.51191406 138.72871094 -52.52382812 138.64492187 -53.56640625 138.55859375 C-54.34886719 138.49800781 -55.13132813 138.43742188 -55.9375 138.375 C-55.916875 139.344375 -55.89625 140.31375 -55.875 141.3125 C-55.9375 144.375 -55.9375 144.375 -56.9375 145.375 C-60.25 145.75 -60.25 145.75 -63.9375 145.375 C-66.0625 143.1875 -66.0625 143.1875 -67.9375 140.375 C-70.20451962 138.05130489 -72.42490529 135.79014135 -74.94848633 133.74633789 C-77.72742964 130.43323167 -78.33702375 127.15938685 -79.26171875 122.99609375 C-79.45345169 122.1876149 -79.64518463 121.37913605 -79.84272766 120.54615784 C-80.45039109 117.97122929 -81.03811673 115.39223575 -81.625 112.8125 C-82.22708176 110.23039847 -82.83312577 107.64924861 -83.43940735 105.06813049 C-83.81456657 103.46405901 -84.18642148 101.85921033 -84.55461121 100.25352478 C-85.24619757 97.24384838 -85.96024602 94.30676194 -86.9375 91.375 C-87.67341926 86.23407828 -87.27874044 82.57484095 -84.5625 78.125 C-81.60669888 72.85092349 -81.29734125 67.85027748 -80.875 61.9375 C-79.59219988 44.76679478 -73.0886723 31.79004394 -59.9375 20.375 C-48.3138662 10.95788652 -35.39190547 5.53877547 -20.9375 2.375 C-20.18073975 2.19839844 -19.42397949 2.02179687 -18.64428711 1.83984375 C-12.39217854 0.45911584 -6.3958913 -0.01043017 0 0 Z " fill="#043C5F" transform="translate(170.9375,32.625)"/>
<path d="M0 0 C0.66 0 1.32 0 2 0 C3.71059691 2.09374648 5.32988184 4.20443734 6.9375 6.375 C16.56472793 18.92647467 28.37719337 27.7869261 41.9453125 35.72265625 C42.62335938 36.14417969 43.30140625 36.56570312 44 37 C44 37.33 44 37.66 44 38 C42.75863281 38.04898438 41.51726562 38.09796875 40.23828125 38.1484375 C38.59633306 38.22349799 36.95440703 38.29904439 35.3125 38.375 C34.49587891 38.4059375 33.67925781 38.436875 32.83789062 38.46875 C27.33965583 38.73587072 23.16251495 39.25797407 18.75 42.8125 C16.56067683 45.20578318 16.56067683 45.20578318 16 50 C11.38 50 6.76 50 2 50 C1.44661458 48.30729167 0.89322917 46.61458333 0.33984375 44.921875 C-1.811009 41.8366868 -4.54928516 40.27984804 -8 39 C-11.64707046 38.41220405 -15.24806487 38.30548023 -18.9375 38.25 C-19.90751953 38.22035156 -20.87753906 38.19070312 -21.87695312 38.16015625 C-24.25138298 38.08997606 -26.62486086 38.03702676 -29 38 C-26.00978391 34.95217905 -22.97122975 32.10043566 -19.6875 29.375 C-10.49228939 21.20147946 -5.12468719 10.97003351 0 0 Z " fill="#F6F8F9" transform="translate(164,78)"/>
<path d="M0 0 C1.03769531 -0.03738281 2.07539063 -0.07476562 3.14453125 -0.11328125 C11.75227081 -0.21222079 11.75227081 -0.21222079 15.41796875 2.6484375 C18.17373092 5.8704174 18.70667586 7.37190018 18.921875 11.4453125 C18.6567714 14.42170288 17.67127434 16.12247147 15.75 18.375 C10.86029537 21.43738219 5.39794357 20.78273742 -0.1875 20.8125 C-1.27224609 20.84537109 -2.35699219 20.87824219 -3.47460938 20.91210938 C-11.46471059 20.96612973 -11.46471059 20.96612973 -15.44140625 17.97265625 C-18.1070325 14.14405699 -18.79298961 12.08090995 -18.25 7.375 C-13.43746448 -0.40047717 -8.38260911 0.11286255 0 0 Z " fill="#F5F7F9" transform="translate(144.25,118.625)"/>
<path d="M0 0 C0.93392578 -0.02900391 1.86785156 -0.05800781 2.83007812 -0.08789062 C9.05913133 -0.14487704 12.75750108 0.59657364 17.8125 4.3125 C20.19563638 7.88720457 20.46087918 9.09803535 19.8125 13.3125 C18.29468257 16.27064275 16.51652968 18.37094936 13.8125 20.3125 C9.7621932 21.24541497 5.88516233 21.11155975 1.75 20.9375 C0.67427734 20.93105469 -0.40144531 20.92460937 -1.50976562 20.91796875 C-7.0070254 20.80209347 -10.62020659 20.62607455 -15.1875 17.3125 C-17.70000583 13.54374125 -17.71766086 11.78099866 -17.1875 7.3125 C-12.69987669 -0.17799393 -7.96095805 0.08073994 0 0 Z " fill="#F6F8F9" transform="translate(200.1875,118.6875)"/>
<path d="M0 0 C13.95971272 5.11856133 26.0029199 14.6717708 33.46484375 27.50390625 C37.52393838 36.74790039 36.16560796 47.20889314 35 57 C34.34 57 33.68 57 33 57 C33 57.99 33 58.98 33 60 C32.01 60 31.02 60 30 60 C29.76216797 58.47632812 29.76216797 58.47632812 29.51953125 56.921875 C26.27889325 37.32259205 17.51787249 17.84228499 0.9375 5.875 C-0.031875 5.25625 -1.00125 4.6375 -2 4 C-1.34 2.68 -0.68 1.36 0 0 Z " fill="#F2F5F6" transform="translate(212,49)"/>
<path d="M0 0 C3.35386761 -0.1171893 6.70720149 -0.18757584 10.0625 -0.25 C11.00544922 -0.28351563 11.94839844 -0.31703125 12.91992188 -0.3515625 C19.21780507 -0.43933788 22.85635511 0.30642521 28 4 C30.91240576 7.00635434 31 7.62282923 31 12 C35.62 12 40.24 12 45 12 C45 10.35 45 8.7 45 7 C46.2421875 5.19921875 46.2421875 5.19921875 47.875 3.6875 C48.40867188 3.17574219 48.94234375 2.66398437 49.4921875 2.13671875 C51 1 51 1 53 1 C52.60219815 3.86417332 52.3137738 5.62347144 50.4375 7.875 C48.32390905 10.9994388 48.60521781 13.31536623 49 17 C50.76015131 20.1850357 51.49890916 20.83296972 55 22 C58.97487847 22.25823603 62.95512426 22.2313581 66.9375 22.25 C68.03513672 22.270625 69.13277344 22.29125 70.26367188 22.3125 C71.32005859 22.31765625 72.37644531 22.3228125 73.46484375 22.328125 C74.430271 22.3374707 75.39569824 22.34681641 76.39038086 22.35644531 C79.42745026 21.94161499 80.66337201 20.90829306 83 19 C85.75 18.8125 85.75 18.8125 88 19 C87.67 20.32 87.34 21.64 87 23 C86.505 22.01 86.505 22.01 86 21 C85.11441406 21.97582031 84.22882813 22.95164063 83.31640625 23.95703125 C78.10932543 28.40695667 72.48917192 27.84479866 65.9375 27.6875 C64.77927734 27.70232422 63.62105469 27.71714844 62.42773438 27.73242188 C53.02836171 27.64064167 53.02836171 27.64064167 49.27734375 24.58984375 C46.32579791 21.23328304 45 19.48587403 45 15 C40.38 15 35.76 15 31 15 C30.505 17.475 30.505 17.475 30 20 C24.00427036 26.78464144 24.00427036 26.78464144 19.44384766 27.2746582 C16.17050983 27.30288118 12.89847759 27.32171587 9.625 27.3125 C8.48804688 27.32861328 7.35109375 27.34472656 6.1796875 27.36132812 C5.08140625 27.36197266 3.983125 27.36261719 2.8515625 27.36328125 C1.84947754 27.36626221 0.84739258 27.36924316 -0.18505859 27.37231445 C-3.48952113 26.93525414 -5.32315573 25.96017041 -8 24 C-12 18.7027027 -12 18.7027027 -12 16 C-10.68 16 -9.36 16 -8 16 C-6.375 18.4375 -6.375 18.4375 -5 21 C-2.4293441 22.28532795 -0.57067786 22.12946738 2.3046875 22.1328125 C3.89216797 22.13474609 3.89216797 22.13474609 5.51171875 22.13671875 C7.17654297 22.13091797 7.17654297 22.13091797 8.875 22.125 C9.97714844 22.12886719 11.07929688 22.13273437 12.21484375 22.13671875 C13.27574219 22.13542969 14.33664063 22.13414062 15.4296875 22.1328125 C16.88737549 22.13112061 16.88737549 22.13112061 18.37451172 22.12939453 C20.76970436 22.01134989 22.74524849 21.80703722 25 21 C27.31626414 17.36015636 27.11266938 14.0950741 26.77734375 9.96484375 C25.49905091 6.73378194 24.01604501 5.74235182 21 4 C17.39949155 3.38149187 13.83508154 3.30389308 10.1875 3.25 C9.20845703 3.22035156 8.22941406 3.19070312 7.22070312 3.16015625 C4.81372047 3.08970798 2.4076921 3.03688975 0 3 C0 2.01 0 1.02 0 0 Z " fill="#154A6A" transform="translate(135,116)"/>
<path d="M0 0 C2.206875 -0.061875 4.41375 -0.12375 6.6875 -0.1875 C8.54955078 -0.23970703 8.54955078 -0.23970703 10.44921875 -0.29296875 C14.23312565 0.01923479 15.97088049 0.79454089 19 3 C19.7425 3.53625 20.485 4.0725 21.25 4.625 C23.870526 8.18142815 24.19685868 11.63882311 24 16 C22.51216314 20.22858897 20.86411644 22.70568086 17 25 C11.57364835 26.80878388 5.66885438 26.05200784 0 26 C0 17.42 0 8.84 0 0 Z " fill="#144969" transform="translate(143,277)"/>
<path d="M0 0 C0.495 1.485 0.495 1.485 1 3 C0.33355469 3.37769531 -0.33289063 3.75539062 -1.01953125 4.14453125 C-17.51310297 13.99453842 -27.65533514 28.04034165 -34 46 C-34.8934528 49.65075929 -35.5583134 53.26850977 -36 57 C-36.66 57 -37.32 57 -38 57 C-38 53.04 -38 49.08 -38 45 C-38.66 45 -39.32 45 -40 45 C-39.95043386 32.41019989 -34.89114429 23.1626772 -26.28125 14.1796875 C-19.57898106 7.77580724 -9.70342347 -0.73431313 0 0 Z " fill="#EDF1F3" transform="translate(136,49)"/>
<path d="M0 0 C2.31 0 4.62 0 7 0 C7.433125 0.9075 7.86625 1.815 8.3125 2.75 C9.71153746 5.44444252 11.15258092 7.61957205 13 10 C13.36351562 9.278125 13.72703125 8.55625 14.1015625 7.8125 C14.60429687 6.884375 15.10703125 5.95625 15.625 5 C16.11226562 4.071875 16.59953125 3.14375 17.1015625 2.1875 C18.04128906 1.1046875 18.04128906 1.1046875 19 0 C20.98 0 22.96 0 25 0 C25 8.58 25 17.16 25 26 C23.35 26 21.7 26 20 26 C19.67 21.05 19.34 16.1 19 11 C17.35 13.97 15.7 16.94 14 20 C13.34 20 12.68 20 12 20 C11.34 18.35 10.68 16.7 10 15 C9.34 15 8.68 15 8 15 C8 14.01 8 13.02 8 12 C7.34 12 6.68 12 6 12 C6 16.62 6 21.24 6 26 C4.02 26 2.04 26 0 26 C0 17.42 0 8.84 0 0 Z " fill="#0F4566" transform="translate(171,277)"/>
<path d="M0 0 C6 0 6 0 7.875 1.8125 C9 4 9 4 9 7 C9.99 7.33 10.98 7.66 12 8 C13.32 9.65 14.64 11.3 16 13 C16.33 8.71 16.66 4.42 17 0 C18.98 0 20.96 0 23 0 C23 8.58 23 17.16 23 26 C18 26 18 26 16.05078125 24.06640625 C15.47714844 23.24011719 14.90351563 22.41382813 14.3125 21.5625 C12.13194901 18.23429217 12.13194901 18.23429217 9 16 C8.67 15.01 8.34 14.02 8 13 C7.34 12.67 6.68 12.34 6 12 C6 16.62 6 21.24 6 26 C4.02 26 2.04 26 0 26 C0 17.42 0 8.84 0 0 Z " fill="#164A6A" transform="translate(214,277)"/>
<path d="M0 0 C1.98 0 3.96 0 6 0 C16 20.96666667 16 20.96666667 16 26 C14.35 26 12.7 26 11 26 C10.34 24.35 9.68 22.7 9 21 C5.04 21 1.08 21 -3 21 C-3.99 23.475 -3.99 23.475 -5 26 C-6.65 26 -8.3 26 -10 26 C-7.16894381 17.12077831 -3.71414845 8.54254143 0 0 Z " fill="#0B4263" transform="translate(123,277)"/>
<path d="M0 0 C7.22891566 -0.48192771 7.22891566 -0.48192771 10.5 1.5625 C12.58392818 4.94888329 12.55802097 7.09385318 12 11 C10.5 13.4375 10.5 13.4375 8 15 C5.24154167 15.32111824 2.79456032 15.18630402 0 15 C0 10.05 0 5.1 0 0 Z " fill="#FCFCFD" transform="translate(149,283)"/>
<path d="M0 0 C1.65 0 3.3 0 5 0 C5 8.58 5 17.16 5 26 C3.35 26 1.7 26 0 26 C0 17.42 0 8.84 0 0 Z " fill="#033B5E" transform="translate(203,277)"/>
<path d="M0 0 C0.928125 0.061875 1.85625 0.12375 2.8125 0.1875 C2.4825 1.5075 2.1525 2.8275 1.8125 4.1875 C1.3175 3.1975 1.3175 3.1975 0.8125 2.1875 C-0.06535156 3.16976562 -0.94320312 4.15203125 -1.84765625 5.1640625 C-7.13104488 9.69268133 -13.00937867 8.8440158 -19.625 8.5625 C-20.83349609 8.53542969 -22.04199219 8.50835937 -23.28710938 8.48046875 C-26.25576181 8.41006593 -29.22068947 8.31163433 -32.1875 8.1875 C-32.1875 7.8575 -32.1875 7.5275 -32.1875 7.1875 C-23.9375 7.1875 -15.6875 7.1875 -7.1875 7.1875 C-7.1875 6.5275 -7.1875 5.8675 -7.1875 5.1875 C-14.1175 5.1875 -21.0475 5.1875 -28.1875 5.1875 C-28.1875 4.8575 -28.1875 4.5275 -28.1875 4.1875 C-27.21139771 4.16562622 -27.21139771 4.16562622 -26.21557617 4.14331055 C-23.26811694 4.06885451 -20.32179358 3.97218734 -17.375 3.875 C-16.35083984 3.85244141 -15.32667969 3.82988281 -14.27148438 3.80664062 C-13.28857422 3.77119141 -12.30566406 3.73574219 -11.29296875 3.69921875 C-10.38699951 3.67303467 -9.48103027 3.64685059 -8.54760742 3.61987305 C-4.61195758 2.89885972 -4.19989081 0.2470524 0 0 Z " fill="#3D6984" transform="translate(220.1875,134.8125)"/>
<path d="M0 0 C-0.54341623 3.91259689 -1.66579882 5.88773176 -4 9 C-4.71433121 11.64934822 -4.71433121 11.64934822 -5 14 C-5.66 13.34 -6.32 12.68 -7 12 C-7.33 12.66 -7.66 13.32 -8 14 C-12.62 14 -17.24 14 -22 14 C-22 13.01 -22 12.02 -22 11 C-17.38 11 -12.76 11 -8 11 C-8 9.35 -8 7.7 -8 6 C-6.7578125 4.19921875 -6.7578125 4.19921875 -5.125 2.6875 C-4.59132812 2.17574219 -4.05765625 1.66398437 -3.5078125 1.13671875 C-2 0 -2 0 0 0 Z " fill="#396681" transform="translate(188,117)"/>
<path d="M0 0 C0.33 0 0.66 0 1 0 C1 1.65 1 3.3 1 5 C1.66 5 2.32 5 3 5 C1.60846256 9.42761914 -0.52071486 11.9556255 -4 15 C-4.66 15 -5.32 15 -6 15 C-6 14.34 -6 13.68 -6 13 C-13.59 13 -21.18 13 -29 13 C-29 12.67 -29 12.34 -29 12 C-28.35450195 11.97494385 -27.70900391 11.9498877 -27.04394531 11.92407227 C-24.11244106 11.80785567 -21.18123783 11.68524558 -18.25 11.5625 C-17.23421875 11.52318359 -16.2184375 11.48386719 -15.171875 11.44335938 C-14.1921875 11.40146484 -13.2125 11.35957031 -12.203125 11.31640625 C-11.30239258 11.27974854 -10.40166016 11.24309082 -9.47363281 11.20532227 C-7.1711679 11.01420768 -5.17553587 10.77889556 -3 10 C-1.85706445 7.68684675 -1.85706445 7.68684675 -1.25 4.9375 C-1.00765625 4.01839844 -0.7653125 3.09929687 -0.515625 2.15234375 C-0.34546875 1.44207031 -0.1753125 0.73179688 0 0 Z " fill="#3C6883" transform="translate(163,127)"/>
<path d="M0 0 C-0.4793247 4.31392226 -1.7457985 6.16569547 -5 9 C-5.33 8.67 -5.66 8.34 -6 8 C-6.66 8.66 -7.32 9.32 -8 10 C-7.61508669 5.50934475 -5.14531178 0 0 0 Z " fill="#245673" transform="translate(188,117)"/>
<path d="M0 0 C0.66 0 1.32 0 2 0 C2.66 2.64 3.32 5.28 4 8 C2.02 8 0.04 8 -2 8 C-1.34 5.36 -0.68 2.72 0 0 Z " fill="#DAE3E7" transform="translate(125,285)"/>
<path d="M0 0 C0.99 0.495 0.99 0.495 2 1 C4.204364 1.22950319 6.41392173 1.41075933 8.625 1.5625 C9.81351563 1.64628906 11.00203125 1.73007813 12.2265625 1.81640625 C13.59941406 1.90728516 13.59941406 1.90728516 15 2 C15 2.33 15 2.66 15 3 C10.71 3 6.42 3 2 3 C2 3.66 2 4.32 2 5 C1.34 5 0.68 5 0 5 C0 3.35 0 1.7 0 0 Z " fill="#023B5E" transform="translate(164,127)"/>
<path d="M0 0 C3.96 1.98 3.96 1.98 8 4 C8 4.33 8 4.66 8 5 C1.25 4.25 1.25 4.25 -1 2 C-0.67 1.34 -0.34 0.68 0 0 Z " fill="#678A9E" transform="translate(138,175)"/>
<path d="M0 0 C0.33 0 0.66 0 1 0 C1.33 3.3 1.66 6.6 2 10 C0.35 9.67 -1.3 9.34 -3 9 C-2.34 8.34 -1.68 7.68 -1 7 C-0.59952556 4.67724823 -0.2602896 2.34260643 0 0 Z " fill="#D6DFE4" transform="translate(171,252)"/>
<path d="M0 0 C2 3 2 3 1.625 5.6875 C1.41875 6.450625 1.2125 7.21375 1 8 C-1 6 -1 6 -1.1875 3.4375 C-1 1 -1 1 0 0 Z " fill="#094162" transform="translate(181,128)"/>
</svg>
